<svg xmlns="http://www.w3.org/2000/svg" width="123.11" height="119.563" viewBox="0 0 123.11 119.563">
  <g id="_6588942_computer_construction_eingineer_pc_icon" data-name="6588942_computer_construction_eingineer_pc_icon" transform="translate(-0.5 -1.5)">
    <path id="Path_32" data-name="Path 32" d="M3,12.6V77.083a8.878,8.878,0,0,0,9.085,8.6h99.939a8.878,8.878,0,0,0,9.085-8.6V12.6A8.878,8.878,0,0,0,112.025,4H12.085A8.878,8.878,0,0,0,3,12.6Z" fill="none" stroke="#fff3e6" stroke-linecap="round" stroke-linejoin="round" stroke-width="5"/>
    <line id="Line_1" data-name="Line 1" x2="117.999" transform="translate(3.056 72.328)" fill="none" stroke="#fff3e6" stroke-linecap="round" stroke-linejoin="round" stroke-width="5"/>
    <line id="Line_2" data-name="Line 2" x2="63.999" transform="translate(30.056 117.653)" fill="none" stroke="#fff3e6" stroke-linecap="round" stroke-linejoin="round" stroke-width="5"/>
    <path id="Path_33" data-name="Path 33" d="M20.762,23c0,11.155-3.718,24.435-9.562,31.872" transform="translate(28.581 62.681)" fill="none" stroke="#fff3e6" stroke-linecap="round" stroke-width="5"/>
    <path id="Path_34" data-name="Path 34" d="M28.562,54.872C22.718,47.435,19,34.155,19,23" transform="translate(55.768 62.681)" fill="none" stroke="#fff3e6" stroke-linecap="round" stroke-width="5"/>
    <line id="Line_3" data-name="Line 3" x2="63.999" transform="translate(30.056 58.646)" fill="none" stroke="#fff3e6" stroke-linecap="round" stroke-linejoin="round" stroke-width="5"/>
    <path id="Path_35" data-name="Path 35" d="M18.674,34.091,12.3,11.781h0a42.791,42.791,0,0,1,39.309,0h0l-6.374,22.31" transform="translate(30.101 12.936)" fill="none" stroke="#fff3e6" stroke-linecap="round" stroke-linejoin="round" stroke-width="5"/>
    <path id="Path_36" data-name="Path 36" d="M19.5,8.9A36.359,36.359,0,0,1,37.03,40.241v6.374" transform="translate(56.609 15.866)" fill="none" stroke="#fff3e6" stroke-linecap="round" stroke-linejoin="round" stroke-width="5"/>
    <path id="Path_37" data-name="Path 37" d="M9.2,46.615V40.241A36.359,36.359,0,0,1,26.73,8.9" transform="translate(21.271 15.866)" fill="none" stroke="#fff3e6" stroke-linecap="round" stroke-linejoin="round" stroke-width="5"/>
  </g>
</svg>
