<svg xmlns="http://www.w3.org/2000/svg" width="133.98" height="136.088" viewBox="0 0 133.98 136.088">
  <g id="_6588970_cog_construction_engineering_helmet_icon" data-name="6588970_cog_construction_engineering_helmet_icon" transform="translate(-0.5 -0.075)">
    <path id="Path_28" data-name="Path 28" d="M19.794,62.312,10,10.74h0a56.942,56.942,0,0,1,58.762,0h0L58.968,62.312" transform="translate(28.109)" fill="none" stroke="#fff3e6" stroke-linecap="round" stroke-linejoin="round" stroke-width="5"/>
    <path id="Path_29" data-name="Path 29" d="M95.766,5.6c15.874,10.887,26.292,30.943,26.292,53.863v11.46l9.922,11.46H3l9.922-11.46V59.463c0-22.921,10.418-42.976,26.292-53.863" transform="translate(0 14.309)" fill="none" stroke="#fff3e6" stroke-linecap="round" stroke-linejoin="round" stroke-width="5"/>
    <path id="Path_30" data-name="Path 30" d="M8.605,19.1A88.307,88.307,0,0,0,7.7,29.987a79.807,79.807,0,0,0,.905,10.887c4.525-.573,9.05,1.719,11.313,7.449a18.144,18.144,0,0,1-.905,16.044A36.938,36.938,0,0,0,34.4,75.829c1.81-5.157,5.883-9.168,10.86-9.168s9.05,4.011,10.86,9.168c5.883-2.292,10.86-6.3,15.385-11.46A18.144,18.144,0,0,1,70.6,48.324c2.263-5.157,7.24-8.022,11.313-7.449a88.307,88.307,0,0,0,.905-10.887A79.807,79.807,0,0,0,81.911,19.1" transform="translate(22.232 57.835)" fill="none" stroke="#fff3e6" stroke-linecap="round" stroke-linejoin="round" stroke-width="5"/>
    <path id="Path_31" data-name="Path 31" d="M17.584,19A16,16,0,0,0,13,30.46a16.884,16.884,0,0,0,17.19,17.19,16.884,16.884,0,0,0,17.19-17.19A16,16,0,0,0,42.8,19" transform="translate(37.3 62.106)" fill="none" stroke="#fff3e6" stroke-linecap="round" stroke-linejoin="round" stroke-width="5"/>
  </g>
</svg>
