<svg xmlns="http://www.w3.org/2000/svg" width="27.395" height="18.492" viewBox="0 0 27.395 18.492">
  <path id="Icon_zocial-email" data-name="Icon zocial-email" d="M.072,20.923V5.706q0-.026.079-.5l8.956,7.661L.178,21.451a2.239,2.239,0,0,1-.106-.528ZM1.261,4.147a1.138,1.138,0,0,1,.449-.079H25.829a1.5,1.5,0,0,1,.476.079l-8.982,7.688-1.189.951-2.351,1.928-2.351-1.928-1.189-.951Zm.026,18.334L10.3,13.843l3.487,2.827,3.487-2.827,9.008,8.639a1.268,1.268,0,0,1-.449.079H1.71a1.2,1.2,0,0,1-.423-.079Zm17.172-9.616L27.388,5.2a1.577,1.577,0,0,1,.079.5V20.923a2.025,2.025,0,0,1-.079.528Z" transform="translate(-0.072 -4.068)" fill="#ff8305"/>
</svg>
