<svg id="_002-facebook-logo" data-name="002-facebook-logo" xmlns="http://www.w3.org/2000/svg" width="9.368" height="17.404" viewBox="0 0 9.368 17.404">
  <path id="Path_70" data-name="Path 70" d="M31.092,0,28.845,0a3.955,3.955,0,0,0-4.156,4.283V6.258H22.43a.354.354,0,0,0-.353.355V9.474a.354.354,0,0,0,.353.355h2.259v7.22a.354.354,0,0,0,.353.355H27.99a.354.354,0,0,0,.353-.355V9.829h2.641a.354.354,0,0,0,.353-.355V6.613a.356.356,0,0,0-.1-.251.353.353,0,0,0-.25-.1H28.344V4.584c0-.8.191-1.213,1.234-1.213h1.514a.354.354,0,0,0,.353-.355V.359A.354.354,0,0,0,31.092,0Z" transform="translate(-22.077 0)" fill="#c5c5c5"/>
</svg>
