<svg xmlns="http://www.w3.org/2000/svg" width="52.747" height="62" viewBox="0 0 52.747 62">
  <g id="_4137183_building_construction_industry_measurement_icon" data-name="4137183_building_construction_industry_measurement_icon" transform="translate(-49.698 -13.502)">
    <path id="Path_1055" data-name="Path 1055" d="M161.575,486.294a.9.9,0,0,1-.343-.069.84.84,0,0,1-.153-.082.9.9,0,0,1-.248-1.241.951.951,0,0,1,.111-.136.9.9,0,0,1,.458-.244.9.9,0,0,1,.35,0,.845.845,0,0,1,.167.051.884.884,0,0,1,.483.483.892.892,0,0,1-.193.975.952.952,0,0,1-.135.111.9.9,0,0,1-.155.082.845.845,0,0,1-.167.051A.9.9,0,0,1,161.575,486.294Z" transform="translate(-96.795 -410.792)" fill="#1b3954"/>
    <path id="Path_1056" data-name="Path 1056" d="M271.814,182.56H268.98a.895.895,0,0,1,0-1.79h2.834a.895.895,0,1,1,0,1.79Zm0,6.552H268.98a.895.895,0,0,1,0-1.79h2.834a.895.895,0,1,1,0,1.79Zm0,6.552H268.98a.895.895,0,0,1,0-1.79h2.834a.895.895,0,1,1,0,1.79Zm0,6.55H268.98a.895.895,0,0,1,0-1.79h2.834a.895.895,0,1,1,0,1.79Zm0,6.552H268.98a.895.895,0,0,1,0-1.79h2.834a.895.895,0,1,1,0,1.79Zm0,6.552H268.98a.895.895,0,0,1,0-1.79h2.834a.895.895,0,1,1,0,1.79Zm-9.745-3.674a.894.894,0,0,1-.895-.895v-14.1l-13.2,13.2h9.543a.895.895,0,0,1,0,1.79h-11.7a.895.895,0,0,1-.633-1.528l16.256-16.256a.895.895,0,0,1,1.528.633v16.256A.9.9,0,0,1,262.07,211.642Z" transform="translate(-170.265 -145.885)"/>
    <path id="Path_1057" data-name="Path 1057" d="M111.3,146.84H77.453a.895.895,0,1,1,0-1.79h32.953V98.577L63.934,145.05h7.53a.895.895,0,1,1,0,1.79h-9.69a.895.895,0,0,1-.633-1.528l49.527-49.527a.895.895,0,0,1,1.528.633v49.527A.894.894,0,0,1,111.3,146.84Zm-9.368-49.713a.915.915,0,1,1,.651-1.569l.011.012a.9.9,0,0,1,0,1.266l-.029.029A.892.892,0,0,1,101.934,97.127Z" transform="translate(-9.752 -71.338)" fill="#1b3954"/>
    <path id="Path_1058" data-name="Path 1058" d="M56.809,88.863a3.7,3.7,0,0,1-2.624-1.085L51.4,84.988a3.716,3.716,0,0,1,0-5.249l2.485-2.485a.895.895,0,0,1,1.266,1.266L52.661,81a1.924,1.924,0,0,0,0,2.718l2.789,2.789a1.924,1.924,0,0,0,2.718,0L89.952,54.728a3.33,3.33,0,0,1-2.246-3.261,3.334,3.334,0,0,1-3.262-2.246L57.659,76.006a.895.895,0,1,1-1.266-1.266L84.882,46.253a.894.894,0,0,1,1.4,1.1,1.529,1.529,0,0,0,.229,1.88,1.514,1.514,0,0,0,1.148.449,1.772,1.772,0,0,1,1.84,1.84A1.536,1.536,0,0,0,91.821,52.9a.895.895,0,0,1,1.1,1.4L59.434,87.777A3.7,3.7,0,0,1,56.809,88.863Z" transform="translate(-0.534 -28.335)" fill="#1b3954"/>
    <path id="Path_1059" data-name="Path 1059" d="M103.577,128.521a.895.895,0,0,1-.633-1.528l25.465-25.465a.895.895,0,0,1,1.266,1.266L104.21,128.259A.892.892,0,0,1,103.577,128.521Zm27.595-27.595a.891.891,0,0,1-.174-.018.922.922,0,0,1-.322-.133.961.961,0,0,1-.137-.111.9.9,0,0,1-.262-.633.9.9,0,0,1,.018-.175.94.94,0,0,1,.051-.167.9.9,0,0,1,.082-.155.952.952,0,0,1,.111-.136.881.881,0,0,1,.137-.111.922.922,0,0,1,.322-.133.9.9,0,0,1,.807.244.8.8,0,0,1,.111.136.9.9,0,0,1,.083.155.938.938,0,0,1,.051.167.9.9,0,0,1-.878,1.07Z" transform="translate(-46.212 -74.688)" fill="#1b3954"/>
    <path id="Path_1060" data-name="Path 1060" d="M56.275,60.606a3.518,3.518,0,0,1-2.493-1.03l-3.054-3.054a3.528,3.528,0,0,1,0-4.984l2.618-2.618a.9.9,0,0,1,1.266,0l6.773,6.773a.9.9,0,0,1,0,1.266l-2.618,2.618a3.513,3.513,0,0,1-2.492,1.03Zm-1.227-2.3a1.737,1.737,0,0,0,2.453,0l1.985-1.985-5.507-5.507L51.994,52.8a1.737,1.737,0,0,0,0,2.453ZM90.491,26.572a3.327,3.327,0,0,1-3.32-3.44,3.325,3.325,0,0,1-2.957-5.048c.046-.075.093-.144.142-.213a1.754,1.754,0,0,1,.649-.55,1.2,1.2,0,0,1,.11-.049,1.644,1.644,0,0,1,.316-.1L95.6,13.554A.9.9,0,0,1,96.749,14.7L93.126,24.875a1.748,1.748,0,0,1-.093.3,1.009,1.009,0,0,1-.056.125,1.76,1.76,0,0,1-.533.635c-.074.052-.144.1-.222.148a3.347,3.347,0,0,1-1.73.483Zm-3.3-5.23a1.772,1.772,0,0,1,1.767,1.841,1.536,1.536,0,0,0,2.327,1.379l.091-.059a.887.887,0,0,1,.041-.162l3.014-8.468-8.469,3.014a.875.875,0,0,1-.161.041c-.02.029-.041.06-.06.092a1.536,1.536,0,0,0,1.378,2.325.464.464,0,0,1,.073,0ZM85.731,18.953Z" transform="translate(0)"/>
    <path id="Path_1061" data-name="Path 1061" d="M367.58,33.2a.891.891,0,0,1-.633-.262l-3.363-3.363A.895.895,0,0,1,364.85,28.3l3.363,3.363a.895.895,0,0,1-.633,1.528Z" transform="translate(-273.532 -12.681)"/>
  </g>
</svg>
