<svg id="_2890589_ai_artificial_intelligence_brain_electronics_robotics_icon" data-name="2890589_ai_artificial intelligence_brain_electronics_robotics_icon" xmlns="http://www.w3.org/2000/svg" width="62" height="62" viewBox="0 0 62 62">
  <path id="Path_1049" data-name="Path 1049" d="M22,14H62V46H22Z" transform="translate(-1 -1)" fill="#ffcb57"/>
  <path id="Path_1050" data-name="Path 1050" d="M3,9H37v2h2V6a5.006,5.006,0,0,0-5-5H6A5.006,5.006,0,0,0,1,6V51H3ZM6,3H34a3,3,0,0,1,3,3V7H3V6A3,3,0,0,1,6,3Zm9,54H25v2H15Z" transform="translate(-1 -1)" fill="#3f3a34"/>
  <path id="Path_1051" data-name="Path 1051" d="M1,58a5.006,5.006,0,0,0,5,5H34a5.006,5.006,0,0,0,5-5V53H1Zm2-3H37v3a3,3,0,0,1-3,3H6a3,3,0,0,1-3-3ZM63,13H21V47H37v4h2V47H63ZM61,45H23V15H61Z" transform="translate(-1 -1)" fill="#3f3a34"/>
  <path id="Path_1052" data-name="Path 1052" d="M39,22h2v2H39Zm4,0h2v2H43Z" transform="translate(-1 -1)" fill="#3f3a34"/>
  <path id="Path_1053" data-name="Path 1053" d="M29,43h2V39h2v4h2V33H49V43h2V39h2v4h2V39h2V31H49V26h2a2,2,0,0,0,2-2V21a2,2,0,0,0-2-2H49V17H35v2H33a2,2,0,0,0-2,2v3a2,2,0,0,0,2,2h2v5H27v8h2ZM55,33v4H51V33ZM51,21v3H49V21ZM33,24V21h2v3Zm4-5H47V31H37ZM29,33h4v4H29Z" transform="translate(-1 -1)" fill="#3f3a34"/>
  <path id="Path_1054" data-name="Path 1054" d="M17,13h2V47H17Zm-4,0h2V47H13Z" transform="translate(-1 -1)"/>
</svg>
