<svg xmlns="http://www.w3.org/2000/svg" width="57.488" height="68.853" viewBox="0 0 57.488 68.853">
  <g id="_4137142_building_construction_industry_road_block_icon_1_" data-name="4137142_building_construction_industry_road block_icon (1)" transform="translate(-53.53 -13.5)">
    <path id="Path_1044" data-name="Path 1044" d="M153.858,26.287h-4.712a.993.993,0,0,1-.994-.994V20.106a4.153,4.153,0,1,1,6.7,0v5.186A.993.993,0,0,1,153.858,26.287ZM150.14,24.3h2.724V19.756a.994.994,0,0,1,.254-.663,2.165,2.165,0,1,0-3.233,0,.994.994,0,0,1,.254.663ZM176.4,26.287h-4.712a.993.993,0,0,1-.994-.994V20.107a4.152,4.152,0,1,1,6.7,0v5.187A.993.993,0,0,1,176.4,26.287ZM172.685,24.3h2.724V19.755a.994.994,0,0,1,.254-.663,2.165,2.165,0,1,0-3.233,0,.994.994,0,0,1,.254.663Z" transform="translate(-80.501)"/>
    <path id="Path_1045" data-name="Path 1045" d="M54.526,100.735a.994.994,0,0,1-.7-1.7L63,89.863A.994.994,0,0,1,64.4,91.269l-9.175,9.175A.99.99,0,0,1,54.526,100.735Zm11.012,5.9a.994.994,0,0,1-.7-1.7l15.08-15.08a.994.994,0,0,1,1.405,1.405l-15.08,15.08A.99.99,0,0,1,65.538,106.639Zm16.914,0a.994.994,0,0,1-.7-1.7L96.83,89.863a.994.994,0,0,1,1.405,1.405l-15.081,15.08A.99.99,0,0,1,82.452,106.639Zm21.08-4.162a.994.994,0,0,1-.7-1.7l6.494-6.494a.994.994,0,1,1,1.405,1.405l-6.494,6.494a.99.99,0,0,1-.7.291Zm-44.924,15.27a.994.994,0,0,1-.7-1.7L63,110.958a.994.994,0,1,1,1.405,1.405l-5.092,5.092A.99.99,0,0,1,58.609,117.747Zm6.929,9.987a.994.994,0,0,1-.7-1.7l15.08-15.08a.994.994,0,0,1,1.405,1.405l-15.08,15.08A.99.99,0,0,1,65.538,127.734Zm16.914,0a.994.994,0,0,1-.7-1.7l15.081-15.08a.994.994,0,0,1,1.405,1.405l-15.081,15.08A.99.99,0,0,1,82.452,127.734Zm16.918,0a.994.994,0,0,1-.7-1.7l10.656-10.656a.994.994,0,1,1,1.405,1.405l-10.656,10.656A.99.99,0,0,1,99.37,127.734Z" transform="translate(-0.002 -65.273)" fill="#1b3954"/>
    <path id="Path_1046" data-name="Path 1046" d="M158.706,203.794h-4.712A.993.993,0,0,1,153,202.8v-6.017a.993.993,0,0,1,.994-.994h4.712a.993.993,0,0,1,.994.994V202.8A.993.993,0,0,1,158.706,203.794Zm-3.718-1.988h2.724v-4.029h-2.724Zm26.264,1.988h-4.712a.993.993,0,0,1-.994-.994v-6.017a.993.993,0,0,1,.994-.994h4.712a.993.993,0,0,1,.994.994V202.8A.993.993,0,0,1,181.251,203.794Zm-3.718-1.988h2.724v-4.029h-2.724Zm3.718,26.031a1,1,0,0,1-.7-.291.968.968,0,0,1-.214-.322.938.938,0,0,1-.057-.186.982.982,0,0,1,.148-.745.915.915,0,0,1,.124-.152,1.055,1.055,0,0,1,.15-.124.993.993,0,0,1,.172-.091.969.969,0,0,1,.186-.057,1,1,0,0,1,.9.271.988.988,0,0,1,.271.9.938.938,0,0,1-.057.186.994.994,0,0,1-.091.172,1.058,1.058,0,0,1-.124.15A1,1,0,0,1,181.251,227.837Z" transform="translate(-85.349 -156.411)"/>
    <path id="Path_1047" data-name="Path 1047" d="M181.251,366.26h-4.712a.993.993,0,0,1-.994-.994v-7.771H159.7v7.771a.993.993,0,0,1-.994.994h-4.712a.993.993,0,0,1-.994-.994V345.374a.993.993,0,0,1,.994-.994h4.712a.993.993,0,0,1,.994.994V350.8h15.846v-5.422a.993.993,0,0,1,.994-.994h4.712a.993.993,0,0,1,.994.994v5.643a.994.994,0,0,1-1.988,0v-4.649h-2.724v5.422a.993.993,0,0,1-.994.994H158.706a.993.993,0,0,1-.994-.994v-5.422h-2.724v17.9h2.724V356.5a.993.993,0,0,1,.994-.994h17.834a.993.993,0,0,1,.994.994v7.771h2.724v-6.706a.994.994,0,0,1,1.988,0v7.7A.993.993,0,0,1,181.251,366.26Z" transform="translate(-85.349 -283.906)"/>
    <path id="Path_1048" data-name="Path 1048" d="M110.024,106.637h-55.5a.993.993,0,0,1-.994-.994V90.564a.993.993,0,0,1,.994-.994h55.5a.993.993,0,0,1,.994.994v15.08a.993.993,0,0,1-.994.994ZM55.518,104.65H109.03V91.558H55.518Zm54.506,23.082h-55.5a.993.993,0,0,1-.994-.994V111.66a.993.993,0,0,1,.994-.994h55.5a.993.993,0,0,1,.994.994v15.078A.993.993,0,0,1,110.024,127.732Zm-54.506-1.988H109.03V112.654H55.518Z" transform="translate(0 -65.271)" fill="#1b3954"/>
  </g>
</svg>
