<svg xmlns="http://www.w3.org/2000/svg" width="62" height="62" viewBox="0 0 62 62">
  <g id="_2992643_box_checklist_export_management_package_icon_1_" data-name="2992643_box_checklist_export_management_package_icon (1)" transform="translate(-1 -1)">
    <path id="Path_1040" data-name="Path 1040" d="M16,40H10a1,1,0,0,1-1-1V33a1,1,0,0,1,1-1h6a1,1,0,0,1,1,1v6A1,1,0,0,1,16,40Zm0,10H10a1,1,0,0,1-1-1V43a1,1,0,0,1,1-1h6a1,1,0,0,1,1,1v6A1,1,0,0,1,16,50ZM44,31H40a1,1,0,0,1-1-1V26a1,1,0,0,1,1-1h4a1,1,0,0,1,1,1v4A1,1,0,0,1,44,31Z" fill="#00f4cb"/>
    <path id="Path_1041" data-name="Path 1041" d="M9.293,36.707l2,2a1,1,0,0,0,1.414,0l5-5a1,1,0,1,0-1.414-1.414L12,36.586l-1.293-1.293a1,1,0,1,0-1.414,1.414Zm7,5.586L12,46.586l-1.293-1.293a1,1,0,0,0-1.414,1.414l2,2a1,1,0,0,0,1.414,0l5-5a1,1,0,0,0-1.414-1.414ZM21,35h7a1,1,0,0,0,0-2H21a1,1,0,0,0,0,2Zm0,4h7a1,1,0,0,0,0-2H21a1,1,0,0,0,0,2Zm0,6h7a1,1,0,0,0,0-2H21a1,1,0,0,0,0,2Zm0,4h7a1,1,0,0,0,0-2H21a1,1,0,0,0,0,2Z"/>
    <path id="Path_1042" data-name="Path 1042" d="M62,37a1,1,0,0,0,1-1V2a1,1,0,0,0-1-1H15a1,1,0,0,0-1,1V17a.955.955,0,0,0,.022.109A6.976,6.976,0,0,0,12.681,19H10a1,1,0,0,0-1,1v1H6a5.006,5.006,0,0,0-5,5V58a5.006,5.006,0,0,0,5,5H32a5.006,5.006,0,0,0,5-5V55H59a4,4,0,0,0,4-4v-.636a7.364,7.364,0,0,0-12.571-5.207l-1.308,1.308A1.83,1.83,0,0,1,46,45.171V44a1,1,0,0,0-2,0v1.171A3.781,3.781,0,0,0,44.486,47H37V37Zm-1-2H37V26a5.01,5.01,0,0,0-4-4.9V3h9V8a1,1,0,0,0,1,1H55a1,1,0,0,0,1-1V3h5ZM50,49v4H39V49ZM37,52.912,32.539,51,37,49.088v3.824ZM10,29H28a1,1,0,0,0,1-1V27h2V49.484l-1.394.6a1,1,0,0,0,0,1.838l1.394.6V57H7V27H9v1A1,1,0,0,0,10,29ZM33,48.626V26a1,1,0,0,0-1-1H29V23h3a3,3,0,0,1,3,3V47.769l-2,.857ZM51,4a1,1,0,0,0-1,1V7H48V5a1,1,0,0,0-2,0V7H44V3H54V7H52V5A1,1,0,0,0,51,4ZM16,3H31V21H29V20a1,1,0,0,0-1-1H25.319A6.963,6.963,0,0,0,16,15.688ZM11,21h2.349a1,1,0,0,0,.943-.666,4.991,4.991,0,0,1,9.416,0,1,1,0,0,0,.943.666H27v6H11ZM32,61H6a3,3,0,0,1-3-3V26a3,3,0,0,1,3-3H9v2H6a1,1,0,0,0-1,1V58a1,1,0,0,0,1,1H32a1,1,0,0,0,1-1V53.374l2,.857V58A3,3,0,0,1,32,61Zm27-8H52V49h7a2,2,0,0,1,0,4Zm-3.364-8a5.335,5.335,0,0,1,4.225,2.1A3.945,3.945,0,0,0,59,47H51.414l.429-.429A5.329,5.329,0,0,1,55.636,45Z"/>
    <path id="Path_1043" data-name="Path 1043" d="M48,25a1,1,0,0,0,0,2H58a1,1,0,0,0,0-2Zm6,4H48a1,1,0,0,0,0,2h6a1,1,0,0,0,0-2Z"/>
    <circle id="Ellipse_6" data-name="Ellipse 6" cx="1" cy="1" r="1" transform="translate(57 29)"/>
  </g>
</svg>
