<svg id="instagram_1_" data-name="instagram (1)" xmlns="http://www.w3.org/2000/svg" width="17.5" height="17.579" viewBox="0 0 17.5 17.579">
  <path id="Path_74" data-name="Path 74" d="M12.287,0H5.213A5.231,5.231,0,0,0,0,5.237v7.105a5.231,5.231,0,0,0,5.213,5.237h7.073A5.231,5.231,0,0,0,17.5,12.342V5.237A5.231,5.231,0,0,0,12.287,0ZM15.74,12.342a3.461,3.461,0,0,1-3.453,3.468H5.213a3.461,3.461,0,0,1-3.453-3.468V5.237A3.461,3.461,0,0,1,5.213,1.768h7.073A3.461,3.461,0,0,1,15.74,5.237v7.105Z" transform="translate(0 0)" fill="#c5c5c5"/>
  <path id="Path_75" data-name="Path 75" d="M137.526,133a4.546,4.546,0,1,0,4.526,4.546A4.541,4.541,0,0,0,137.526,133Zm0,7.324a2.778,2.778,0,1,1,2.766-2.778A2.772,2.772,0,0,1,137.526,140.324Z" transform="translate(-128.776 -128.757)" fill="#c5c5c5"/>
  <ellipse id="Ellipse_5" data-name="Ellipse 5" cx="1.085" cy="1.089" rx="1.085" ry="1.089" transform="translate(12.2 3.188)" fill="#c5c5c5"/>
</svg>
