<svg id="_004-linkedin-logo" data-name="004-linkedin-logo" xmlns="http://www.w3.org/2000/svg" width="15.589" height="14.963" viewBox="0 0 15.589 14.963">
  <path id="LinkedIn" d="M15.589,18.732v5.789H12.248v-5.4c0-1.357-.483-2.283-1.693-2.283a1.829,1.829,0,0,0-1.714,1.228,2.306,2.306,0,0,0-.111.818v5.638H5.388s.045-9.148,0-10.1H8.73v1.431l-.022.033H8.73v-.033a3.316,3.316,0,0,1,3.012-1.668C13.94,14.188,15.589,15.631,15.589,18.732ZM1.891,9.558a1.749,1.749,0,1,0-.044,3.489h.022a1.75,1.75,0,1,0,.022-3.489ZM.2,24.521H3.54v-10.1H.2Z" transform="translate(0 -9.558)" fill="#c5c5c5"/>
</svg>
