<svg xmlns="http://www.w3.org/2000/svg" width="27" height="27" viewBox="0 0 27 27">
  <path id="Icon_material-phone-in-talk" data-name="Icon material-phone-in-talk" d="M30,23.25a17.041,17.041,0,0,1-5.355-.855,1.531,1.531,0,0,0-1.53.36l-3.3,3.3A22.568,22.568,0,0,1,9.93,16.17l3.3-3.315a1.44,1.44,0,0,0,.375-1.5A17.041,17.041,0,0,1,12.75,6a1.5,1.5,0,0,0-1.5-1.5H6A1.5,1.5,0,0,0,4.5,6,25.5,25.5,0,0,0,30,31.5,1.5,1.5,0,0,0,31.5,30V24.75A1.5,1.5,0,0,0,30,23.25ZM28.5,18h3A13.5,13.5,0,0,0,18,4.5v3A10.492,10.492,0,0,1,28.5,18Zm-6,0h3A7.5,7.5,0,0,0,18,10.5v3A4.494,4.494,0,0,1,22.5,18Z" transform="translate(-4.5 -4.5)" fill="#ff8305"/>
</svg>
