<svg id="_001-twitter-logo-silhouette" data-name="001-twitter-logo-silhouette" xmlns="http://www.w3.org/2000/svg" width="18.504" height="15.098" viewBox="0 0 18.504 15.098">
  <g id="Group_25" data-name="Group 25" transform="translate(0 0)">
    <path id="Path_69" data-name="Path 69" d="M18.505,59.227a7.554,7.554,0,0,1-2.18.6,3.826,3.826,0,0,0,1.669-2.108,7.632,7.632,0,0,1-2.412.926,3.794,3.794,0,0,0-6.567,2.608,3.84,3.84,0,0,0,.1.869A10.761,10.761,0,0,1,1.29,58.138a3.829,3.829,0,0,0,1.175,5.09,3.783,3.783,0,0,1-1.719-.479V62.8A3.813,3.813,0,0,0,3.79,66.535a3.83,3.83,0,0,1-1,.134,3.626,3.626,0,0,1-.715-.071,3.8,3.8,0,0,0,3.545,2.648,7.594,7.594,0,0,1-4.714,1.63A8.031,8.031,0,0,1,0,70.823a10.783,10.783,0,0,0,16.618-9.133l-.013-.494A7.6,7.6,0,0,0,18.505,59.227Z" transform="translate(-0.001 -57.441)" fill="#c5c5c5"/>
  </g>
</svg>
