<svg id="_005-youtube" data-name="005-youtube" xmlns="http://www.w3.org/2000/svg" width="19.519" height="13.479" viewBox="0 0 19.519 13.479">
  <g id="Group_32" data-name="Group 32" transform="translate(0 0)">
    <path id="Path_73" data-name="Path 73" d="M18.69,81.3c-.529-.946-1.1-1.12-2.274-1.186S12.308,80,9.762,80s-5.491.033-6.659.112S1.36,80.352.826,81.3,0,83.871,0,86.736v.01c0,2.853.281,4.492.826,5.427s1.109,1.118,2.276,1.2,4.109.109,6.66.109,5.485-.04,6.655-.108,1.745-.251,2.274-1.2c.55-.935.828-2.575.828-5.427v-.01C19.519,83.871,19.241,82.244,18.69,81.3ZM7.32,90.416V83.064l6.1,3.676Z" transform="translate(0 -80)" fill="#c5c5c5"/>
  </g>
</svg>
